<svg width="200" height="36" viewBox="0 0 200 36" fill="none" xmlns="http://www.w3.org/2000/svg">
<path d="M36.3457 0.592594L43.5555 24.642L50.716 0.592594H62.3704L50.6173 35.5556H36.4444L24.6913 0.592594H36.3457Z" fill="white"/>
<path d="M86.1578 9.28395V13.6296H97.022V21.8765H86.1578V26.8148H98.5035V35.5556H75.1948V0.592594H98.5035V9.28395H86.1578Z" fill="white"/>
<path d="M125.697 35.9012C121.516 35.9012 118.059 34.93 115.326 32.9877C112.627 31.0123 111.162 28.1317 110.931 24.3457H122.586C122.75 26.3539 123.639 27.358 125.252 27.358C125.845 27.358 126.339 27.2263 126.734 26.963C127.162 26.6667 127.376 26.2222 127.376 25.6296C127.376 24.8066 126.931 24.1481 126.042 23.6543C125.154 23.1276 123.771 22.535 121.894 21.8765C119.656 21.0864 117.796 20.3128 116.314 19.5556C114.865 18.7984 113.614 17.6955 112.561 16.2469C111.507 14.7984 110.997 12.9383 111.03 10.6667C111.03 8.39506 111.606 6.46914 112.758 4.88889C113.944 3.27572 115.54 2.05761 117.549 1.23457C119.59 0.411522 121.878 0 124.413 0C128.693 0 132.084 0.987653 134.586 2.96296C137.121 4.93827 138.454 7.72016 138.586 11.3086H126.783C126.75 10.321 126.503 9.61317 126.042 9.18518C125.582 8.7572 125.022 8.54321 124.363 8.54321C123.903 8.54321 123.524 8.70782 123.228 9.03704C122.931 9.33333 122.783 9.76132 122.783 10.321C122.783 11.1111 123.211 11.7695 124.067 12.2963C124.956 12.7901 126.355 13.3992 128.265 14.1235C130.47 14.9465 132.281 15.7366 133.697 16.4938C135.145 17.251 136.396 18.3045 137.45 19.6543C138.503 21.0041 139.03 22.6996 139.03 24.7407C139.03 26.8807 138.503 28.8066 137.45 30.5185C136.396 32.1975 134.865 33.5144 132.857 34.4691C130.849 35.4239 128.462 35.9012 125.697 35.9012Z" fill="white"/>
<path d="M180.709 0.592594V9.28395H171.425V35.5556H160.462V9.28395H151.277V0.592594H180.709Z" fill="white"/>
<path d="M47.7366 0.822998H39.5062L43.6214 13.1687L47.7366 0.822998Z" fill="white"/>
<path d="M187.654 13.1687L187.654 21.3992L200 17.2839L187.654 13.1687Z" fill="white"/>
<path d="M12.3457 13.1687L12.3457 21.3992L2.3662e-05 17.2839L12.3457 13.1687Z" fill="white"/>
</svg>
